<?xml version="1.0" encoding="iso-8859-1"?>
<!-- Generator: Adobe Illustrator 19.0.0, SVG Export Plug-In . SVG Version: 6.00 Build 0)  -->
<svg version="1.1" id="Layer_1" xmlns="http://www.w3.org/2000/svg" xmlns:xlink="http://www.w3.org/1999/xlink" x="0px" y="0px"
	 viewBox="0 0 512.001 512.001" style="enable-background:new 0 0 512.001 512.001;" xml:space="preserve">
<g>
	<g>
		<path d="M493.939,311.665c-8.59-8.59-8.88-12.389-9.411-19.286c-0.924-12.006-3.066-24.098-18.919-39.949
			c-16.085-16.085-29.949-19.551-41.091-22.338c-9.404-2.349-16.2-4.048-25.865-13.714c-9.668-9.667-11.366-16.462-13.717-25.868
			c-2.785-11.14-6.252-25.008-22.341-41.094c-16.085-16.085-29.95-19.553-41.091-22.338c-9.406-2.351-16.201-4.052-25.869-13.719
			c-9.668-9.668-11.366-16.462-13.719-25.868c-2.785-11.142-6.253-25.008-22.34-41.097c-15.853-15.852-27.943-17.993-39.952-18.918
			c-6.898-0.531-10.696-0.824-19.288-9.416L182.274,0L74.185,291.015l-43.828,43.828c-40.475,40.474-40.475,106.329-0.002,146.803
			c40.473,40.472,106.327,40.473,146.802-0.001l43.833-43.829L512,329.726L493.939,311.665z M53.534,458.465
			c-23.702-23.701-27.097-60.119-10.223-87.488l97.714,97.714C113.655,485.565,77.236,482.169,53.534,458.465z M165.569,446.878
			L65.125,346.432l23.179-23.177l100.444,100.443L165.569,446.878z M216.076,404.669L107.328,295.921l89.311-240.457
			c7.256,3.314,13.876,4.188,20.469,4.697c6.897,0.529,10.696,0.822,19.287,9.411c9.668,9.669,11.366,16.464,13.719,25.87
			c2.785,11.141,6.253,25.008,22.34,41.094c16.087,16.087,29.954,19.555,41.094,22.341c9.405,2.35,16.2,4.049,25.868,13.717
			c9.667,9.668,11.364,16.462,13.717,25.866c2.785,11.142,6.252,25.007,22.338,41.095c16.087,16.085,29.952,19.553,41.093,22.338
			c9.404,2.351,16.198,4.049,25.866,13.716c8.588,8.59,8.882,12.388,9.411,19.282c0.508,6.593,1.382,13.214,4.691,20.464
			L216.076,404.669z"/>
	</g>
</g>
<g>
</g>
<g>
</g>
<g>
</g>
<g>
</g>
<g>
</g>
<g>
</g>
<g>
</g>
<g>
</g>
<g>
</g>
<g>
</g>
<g>
</g>
<g>
</g>
<g>
</g>
<g>
</g>
<g>
</g>
</svg>
